Как это работает:<svg width="342" height="192" viewBox="0 0 342 192" fill="none" xmlns="http://www.w3.org/2000/svg">
<g clip-path="url(#clip0_1_1147)">
<path d="M13.5348 11.4375H16.7884V27.2734H13.5348V20.7398H5.12308V27.2734H1.86951V11.4375H5.12308V17.6537H13.5348V11.4375Z" fill="#571FFF"/>
<path d="M28.2156 11.0936C30.7285 11.0936 32.73 11.9665 34.2202 13.7035C35.7103 15.4405 36.3716 17.6272 36.2217 20.2547H23.3484C23.4807 21.6743 24.0009 22.7853 24.9003 23.5788C25.7996 24.3724 26.9371 24.778 28.2949 24.778C29.256 24.778 30.1113 24.5752 30.8608 24.1696C31.6102 23.764 32.1657 23.1821 32.5272 22.415H35.8954C35.2959 24.1255 34.3171 25.4217 32.9593 26.3034C31.5926 27.1851 30.0319 27.626 28.2685 27.626C25.8702 27.626 23.8951 26.8501 22.3521 25.307C20.8091 23.764 20.0331 21.7889 20.0331 19.3906C20.0331 16.9923 20.8002 15.0084 22.3345 13.4478C23.8687 11.8871 25.8261 11.1024 28.2068 11.1024L28.2156 11.0936ZM28.2156 13.9151C27.0076 13.9151 25.9936 14.259 25.1736 14.9379C24.3536 15.6168 23.8069 16.5074 23.516 17.6007H32.73C32.4831 16.4897 31.9541 15.5992 31.1606 14.9203C30.367 14.2502 29.3795 13.9151 28.2068 13.9151H28.2156Z" fill="#571FFF"/>
<path d="M59.6933 11.4375H62.9469V27.2734H59.6933V20.7398H51.2817V27.2734H48.0281V11.4375H51.2817V17.6537H59.6933V11.4375Z" fill="#571FFF"/>
<path d="M79.0384 11.4374H82.292V27.2732H79.0384V24.6281C77.7687 26.6208 75.9259 27.6259 73.51 27.6259C71.3762 27.6259 69.6304 26.85 68.2549 25.307C66.8794 23.764 66.2004 21.7801 66.2004 19.3641C66.2004 16.9482 66.8882 14.9908 68.2725 13.4301C69.6568 11.8783 71.3938 11.1023 73.4835 11.1023C75.8994 11.1023 77.7511 12.1163 79.0384 14.1531V11.4462V11.4374ZM74.1977 24.5134C75.5997 24.5134 76.7635 24.0373 77.6805 23.0762C78.5975 22.1151 79.0649 20.8807 79.0649 19.3641C79.0649 17.8476 78.6064 16.6308 77.6805 15.6609C76.7635 14.691 75.5997 14.206 74.1977 14.206C72.7958 14.206 71.6848 14.6822 70.8031 15.6432C69.9213 16.6043 69.4805 17.8387 69.4805 19.3553C69.4805 20.8719 69.9213 22.1063 70.8031 23.0674C71.6848 24.0285 72.8222 24.5046 74.1977 24.5046V24.5134Z" fill="#571FFF"/>
<path d="M100.782 11.4375V27.2734H97.5282V14.4883H89.3546V27.2734H86.101V11.4375H100.782Z" fill="#571FFF"/>
<path d="M113.505 11.0936C115.595 11.0936 117.332 11.8695 118.716 13.4213C120.101 14.9732 120.788 16.9571 120.788 19.3554C120.788 21.7537 120.101 23.7552 118.734 25.2982C117.358 26.8412 115.613 27.6172 113.479 27.6172C111.08 27.6172 109.238 26.6208 107.95 24.6193V34.4682H104.697V11.4374H107.95V14.1443C109.238 12.1076 111.089 11.0936 113.505 11.0936ZM112.782 24.5135C114.167 24.5135 115.295 24.0373 116.177 23.0763C117.059 22.1152 117.499 20.8808 117.499 19.3642C117.499 17.8476 117.059 16.6132 116.177 15.6521C115.295 14.691 114.158 14.2149 112.782 14.2149C111.407 14.2149 110.216 14.6998 109.299 15.6697C108.374 16.6396 107.915 17.8741 107.915 19.373C107.915 20.8719 108.374 22.124 109.299 23.0851C110.216 24.0462 111.38 24.5223 112.782 24.5223V24.5135Z" fill="#571FFF"/>
<path d="M136.395 11.4374H139.648V27.2732H136.395V24.6281C135.125 26.6208 133.282 27.6259 130.866 27.6259C128.733 27.6259 126.987 26.85 125.611 25.307C124.236 23.764 123.557 21.7801 123.557 19.3641C123.557 16.9482 124.245 14.9908 125.629 13.4301C127.013 11.8783 128.75 11.1023 130.84 11.1023C133.256 11.1023 135.108 12.1163 136.395 14.1531V11.4462V11.4374ZM131.554 24.5134C132.956 24.5134 134.12 24.0373 135.037 23.0762C135.954 22.1151 136.421 20.8807 136.421 19.3641C136.421 17.8476 135.963 16.6308 135.037 15.6609C134.12 14.691 132.956 14.206 131.554 14.206C130.152 14.206 129.041 14.6822 128.16 15.6432C127.278 16.6043 126.837 17.8387 126.837 19.3553C126.837 20.8719 127.278 22.1063 128.16 23.0674C129.041 24.0285 130.179 24.5046 131.554 24.5046V24.5134Z" fill="#571FFF"/>
<path d="M151.137 27.6172C148.792 27.6172 146.843 26.8324 145.274 25.2541C143.713 23.6846 142.928 21.7096 142.928 19.3554C142.928 17.0011 143.713 15.0261 145.274 13.4566C146.834 11.8871 148.801 11.0936 151.164 11.0936C153.086 11.0936 154.77 11.6491 156.234 12.7512C157.688 13.8534 158.597 15.3347 158.941 17.2039H155.572C155.281 16.2252 154.735 15.4669 153.932 14.9291C153.13 14.3912 152.204 14.1267 151.172 14.1267C149.718 14.1267 148.527 14.6205 147.601 15.5992C146.676 16.5779 146.217 17.8388 146.217 19.373C146.217 20.9072 146.676 22.1681 147.601 23.1468C148.518 24.1255 149.7 24.6193 151.146 24.6193C152.204 24.6193 153.13 24.3459 153.923 23.7816C154.717 23.2262 155.273 22.4679 155.581 21.5068H158.949C158.588 23.4113 157.671 24.9014 156.216 25.9948C154.752 27.0881 153.068 27.6348 151.146 27.6348L151.137 27.6172Z" fill="#571FFF"/>
<path d="M173.595 11.4375H176.849V27.2734H173.595V20.7398H165.183V27.2734H161.93V11.4375H165.183V17.6537H173.595V11.4375Z" fill="#571FFF"/>
<path d="M188.311 11.0936C190.612 11.0936 192.561 11.8783 194.139 13.4566C195.726 15.0349 196.511 17.0011 196.511 19.3554C196.511 21.7096 195.726 23.6846 194.148 25.2541C192.578 26.8236 190.621 27.6172 188.302 27.6172C185.983 27.6172 184.052 26.8236 182.474 25.2453C180.887 23.6582 180.102 21.7008 180.102 19.3554C180.102 17.01 180.895 15.0261 182.491 13.4566C184.087 11.8871 186.027 11.0936 188.311 11.0936ZM191.811 15.6609C190.859 14.691 189.695 14.2061 188.311 14.2061C186.926 14.2061 185.763 14.691 184.81 15.6609C183.858 16.6308 183.382 17.8652 183.382 19.3642C183.382 20.8631 183.849 22.1152 184.793 23.0763C185.736 24.0373 186.9 24.5135 188.302 24.5135C189.704 24.5135 190.877 24.0373 191.811 23.0763C192.755 22.1152 193.222 20.8808 193.222 19.3642C193.222 17.8476 192.746 16.6308 191.794 15.6609H191.811Z" fill="#571FFF"/>
<path d="M31.2485 6.17342L29.1677 6.15579L29.1853 4.10136L33.1266 0.160034L35.1899 2.22328L31.2485 6.17342Z" fill="#571FFF"/>
<path d="M38.0732 61.6344V101.286H29.926V69.2702H9.44343V101.286H1.29626V61.6344H38.0732Z" fill="#ffffff"/>
<path d="M68.1313 60.7701C73.3687 60.7701 77.7245 62.7187 81.1809 66.6072C84.646 70.5044 86.3742 75.4509 86.3742 81.4643C86.3742 87.4777 84.6549 92.4859 81.2161 96.3567C77.7774 100.227 73.3952 102.158 68.0607 102.158C62.0474 102.158 57.4359 99.6632 54.2176 94.6549V119.317H46.0704V61.6342H54.2176V68.4147C57.4359 63.3183 62.0738 60.7701 68.1313 60.7701ZM66.3326 94.3728C69.7889 94.3728 72.6281 93.1736 74.8412 90.7665C77.0544 88.3594 78.1565 85.2645 78.1565 81.4643C78.1565 77.664 77.0544 74.5692 74.8412 72.162C72.6281 69.7549 69.7889 68.5558 66.3326 68.5558C62.8762 68.5558 59.9136 69.7726 57.6034 72.1973C55.2933 74.6221 54.1471 77.7169 54.1471 81.4643C54.1471 85.2116 55.3021 88.3594 57.6034 90.7665C59.9136 93.1736 62.8145 94.3728 66.3326 94.3728Z" fill="#ffffff"/>
<path d="M112.041 60.7701C117.808 60.7701 122.675 62.7452 126.643 66.6865C130.61 70.6278 132.594 75.5567 132.594 81.4643C132.594 87.3719 130.619 92.3007 126.678 96.242C122.737 100.183 117.852 102.158 112.041 102.158C106.231 102.158 101.408 100.175 97.4398 96.2068C93.472 92.239 91.4882 87.3278 91.4882 81.4643C91.4882 75.6008 93.4809 70.6278 97.4751 66.6865C101.461 62.7452 106.319 60.7701 112.041 60.7701ZM120.806 72.1973C118.425 69.7726 115.506 68.5558 112.041 68.5558C108.576 68.5558 105.658 69.7726 103.277 72.1973C100.896 74.6221 99.7059 77.7169 99.7059 81.4643C99.7059 85.2116 100.879 88.3594 103.242 90.7665C105.596 93.1736 108.532 94.3728 112.041 94.3728C115.551 94.3728 118.478 93.1736 120.832 90.7665C123.186 88.3594 124.368 85.2645 124.368 81.4643C124.368 77.664 123.177 74.6309 120.797 72.1973H120.806Z" fill="#ffffff"/>
<path d="M158.191 102.15C152.328 102.15 147.434 100.175 143.519 96.2333C139.604 92.2919 137.647 87.3631 137.647 81.4555C137.647 75.5479 139.604 70.6191 143.519 66.6777C147.434 62.7364 152.354 60.7613 158.262 60.7613C163.067 60.7613 167.299 62.1456 170.95 64.9055C174.6 67.6653 176.866 71.3862 177.73 76.0417H169.292C168.569 73.5905 167.202 71.6948 165.183 70.3457C163.164 68.9967 160.854 68.3266 158.262 68.3266C154.611 68.3266 151.631 69.5522 149.321 72.0034C147.011 74.4546 145.864 77.6023 145.864 81.4467C145.864 85.291 147.02 88.4388 149.321 90.89C151.631 93.3412 154.585 94.5668 158.191 94.5668C160.836 94.5668 163.155 93.8702 165.148 92.4771C167.141 91.084 168.525 89.1883 169.292 86.7811H177.73C176.813 91.5425 174.529 95.2898 170.879 98.032C167.229 100.774 162.996 102.141 158.191 102.141V102.15Z" fill="#ffffff"/>
<path d="M213.564 61.6344V69.279H200.655V101.295H192.508V69.279H179.529V61.6344H213.564Z" fill="#ffffff"/>
<path d="M236.63 60.7701C242.396 60.7701 247.263 62.7452 251.231 66.6865C255.199 70.6278 257.183 75.5567 257.183 81.4643C257.183 87.3719 255.208 92.3007 251.266 96.242C247.325 100.183 242.44 102.158 236.63 102.158C230.819 102.158 225.996 100.175 222.028 96.2068C218.06 92.239 216.077 87.3278 216.077 81.4643C216.077 75.6008 218.069 70.6278 222.064 66.6865C226.049 62.7452 230.907 60.7701 236.63 60.7701ZM245.394 72.1973C243.013 69.7726 240.095 68.5558 236.63 68.5558C233.164 68.5558 230.246 69.7726 227.865 72.1973C225.485 74.6221 224.294 77.7169 224.294 81.4643C224.294 85.2116 225.467 88.3594 227.83 90.7665C230.184 93.1736 233.12 94.3728 236.63 94.3728C240.139 94.3728 243.066 93.1736 245.421 90.7665C247.775 88.3594 248.956 85.2645 248.956 81.4643C248.956 77.664 247.766 74.6309 245.385 72.1973H245.394Z" fill="#ffffff"/>
<path d="M20.5531 174.002C14.6896 174.002 9.79597 172.027 5.8811 168.085C1.96623 164.144 0.00878906 159.215 0.00878906 153.308C0.00878906 147.4 1.96623 142.471 5.8811 138.53C9.79597 134.589 14.716 132.613 20.6236 132.613C25.429 132.613 29.6613 133.998 33.3117 136.758C36.962 139.517 39.2281 143.238 40.0922 147.894H31.654C30.931 145.443 29.5643 143.547 27.5452 142.198C25.526 140.849 23.2159 140.179 20.6236 140.179C16.9732 140.179 13.993 141.404 11.6829 143.856C9.37274 146.307 8.2265 149.455 8.2265 153.299C8.2265 157.143 9.38156 160.291 11.6829 162.742C13.993 165.193 16.9468 166.419 20.5531 166.419C23.1982 166.419 25.5172 165.722 27.5099 164.329C29.5026 162.936 30.8869 161.04 31.654 158.633H40.0922C39.1752 163.395 36.8915 167.142 33.2411 169.884C29.5908 172.626 25.3585 173.993 20.5531 173.993V174.002Z" fill="#ffffff"/>
<path d="M82.5562 133.478V173.129H74.409V141.114H53.9353V173.129H45.7881V133.478H82.5562Z" fill="#ffffff"/>
<path d="M112.614 132.613C117.852 132.613 122.208 134.562 125.664 138.451C129.129 142.348 130.857 147.294 130.857 153.308C130.857 159.321 129.138 164.329 125.699 168.2C122.26 172.071 117.878 174.002 112.544 174.002C106.53 174.002 101.919 171.507 98.7006 166.498V191.16H90.5535V133.478H98.7006V140.258C101.919 135.162 106.557 132.613 112.614 132.613ZM110.816 166.216C114.272 166.216 117.111 165.017 119.324 162.61C121.537 160.203 122.64 157.108 122.64 153.308C122.64 149.507 121.537 146.413 119.324 144.005C117.111 141.598 114.272 140.399 110.816 140.399C107.359 140.399 104.397 141.616 102.086 144.041C99.7763 146.465 98.6301 149.56 98.6301 153.308C98.6301 157.055 99.7852 160.203 102.086 162.61C104.397 165.017 107.297 166.216 110.816 166.216Z" fill="#ffffff"/>
<path d="M156.533 132.613C162.3 132.613 167.167 134.589 171.135 138.53C175.103 142.471 177.086 147.4 177.086 153.308C177.086 159.215 175.111 164.144 171.17 168.085C167.229 172.027 162.344 174.002 156.533 174.002C150.723 174.002 145.9 172.018 141.932 168.05C137.964 164.082 135.98 159.171 135.98 153.308C135.98 147.444 137.973 142.471 141.967 138.53C145.953 134.589 150.811 132.613 156.533 132.613ZM165.298 144.041C162.917 141.616 159.999 140.399 156.533 140.399C153.068 140.399 150.15 141.616 147.769 144.041C145.388 146.465 144.198 149.56 144.198 153.308C144.198 157.055 145.371 160.203 147.734 162.61C150.088 165.017 153.024 166.216 156.533 166.216C160.043 166.216 162.97 165.017 165.324 162.61C167.678 160.203 168.86 157.108 168.86 153.308C168.86 149.507 167.67 146.474 165.289 144.041H165.298Z" fill="#ffffff"/>
<path d="M202.674 174.002C196.811 174.002 191.917 172.027 188.002 168.085C184.087 164.144 182.13 159.215 182.13 153.308C182.13 147.4 184.087 142.471 188.002 138.53C191.917 134.589 196.837 132.613 202.745 132.613C207.55 132.613 211.783 133.998 215.433 136.758C219.083 139.517 221.349 143.238 222.213 147.894H213.775C213.052 145.443 211.686 143.547 209.666 142.198C207.647 140.849 205.337 140.179 202.745 140.179C199.094 140.179 196.114 141.404 193.804 143.856C191.494 146.307 190.348 149.455 190.348 153.299C190.348 157.143 191.503 160.291 193.804 162.742C196.114 165.193 199.068 166.419 202.674 166.419C205.319 166.419 207.638 165.722 209.631 164.329C211.624 162.936 213.008 161.04 213.775 158.633H222.213C221.296 163.395 219.013 167.142 215.362 169.884C211.712 172.626 207.48 173.993 202.674 173.993V174.002Z" fill="#ffffff"/>
<path d="M255.164 133.478H264.757V173.129H256.61V156.544L257.112 143.997L237.502 173.129H227.909V133.478H236.056V150.063L235.554 162.54L255.164 133.487V133.478Z" fill="#ffffff"/>
<path d="M303.394 133.478V141.122H290.486V173.138H282.338V141.122H269.359V133.478H303.394Z" fill="#ffffff"/>
<path d="M327.694 145.883C332.024 145.883 335.471 146.977 338.037 149.163C340.612 151.35 341.899 154.7 341.899 159.224C341.899 163.747 340.55 167.247 337.861 169.602C335.171 171.956 331.68 173.137 327.403 173.137H308.076V133.486H316.223V145.883H327.685H327.694ZM327.192 165.352C331.521 165.352 333.681 163.306 333.681 159.224C333.681 157.249 333.205 155.741 332.244 154.683C331.283 153.625 329.625 153.096 327.271 153.096H316.241V165.352H327.2H327.192Z" fill="#ffffff"/>
</g>
<defs>
<clipPath id="clip0_1_1147">
<rect width="341.899" height="191" fill="white" transform="translate(0 0.160034)"/>
</clipPath>
</defs>
</svg>